# xmcd
#
# Track frame offsets:
#	150
#	12900
#	36450
#	52800
#	61500
#	76350
#	91950
#	108150
#	131925
#	147975
#
# Disc length: 2230 seconds
#
# Revision: 0
# Processed by: cddbd v1.4PL0 Copyright (c) Steve Scherf et al.
# Submitted via: EasyCDDAExtractor 4.6.0.1
#
DISCID=7d08b40a
DTITLE=B.B. King
DYEAR=1999
DGENRE=Blues
TTITLE0=Please Love Me
TTITLE1=The Thrill Is Gone
TTITLE2=The Other Night Blues
TTITLE3=A New Way Of Driving
TTITLE4=B.B. Boogie
TTITLE5=Walkin' And Cryin'
TTITLE6=It's My Own Fault Baby
TTITLE7=You've Done Lost Your Good Thing Now
TTITLE8=Long Nights
TTITLE9=Sweet Sixteen
EXTD=Legacy - 2528210992
EXTT0=
EXTT1=
EXTT2=
EXTT3=
EXTT4=
EXTT5=
EXTT6=
EXTT7=
EXTT8=
EXTT9=
PLAYORDER=
